G04 EAGLE Gerber RS-274X export*
G75*
%MOMM*%
%FSLAX34Y34*%
%LPD*%
%INBottom Copper*%
%IPPOS*%
%AMOC8*
5,1,8,0,0,1.08239X$1,22.5*%
G01*
%ADD10R,1.524000X1.524000*%
%ADD11P,1.649562X8X22.500000*%
%ADD12C,4.445000*%
%ADD13C,1.960000*%
%ADD14C,0.804800*%
%ADD15C,1.120000*%
%ADD16C,0.609600*%
%ADD17C,0.254000*%


D10*
X84500Y1107700D03*
D11*
X84500Y1082300D03*
X109900Y1107700D03*
X109900Y1082300D03*
X135300Y1107700D03*
X135300Y1082300D03*
X160700Y1107700D03*
X160700Y1082300D03*
X186100Y1107700D03*
X186100Y1082300D03*
X211500Y1107700D03*
X211500Y1082300D03*
X236900Y1107700D03*
X236900Y1082300D03*
X262300Y1107700D03*
X262300Y1082300D03*
X287700Y1107700D03*
X287700Y1082300D03*
X313100Y1107700D03*
X313100Y1082300D03*
X338500Y1107700D03*
X338500Y1082300D03*
X363900Y1107700D03*
X363900Y1082300D03*
X389300Y1107700D03*
X389300Y1082300D03*
X414700Y1107700D03*
X414700Y1082300D03*
X440100Y1107700D03*
X440100Y1082300D03*
X465500Y1107700D03*
X465500Y1082300D03*
X490900Y1107700D03*
X490900Y1082300D03*
X516300Y1107700D03*
X516300Y1082300D03*
D10*
X84500Y853700D03*
D11*
X84500Y828300D03*
X109900Y853700D03*
X109900Y828300D03*
X135300Y853700D03*
X135300Y828300D03*
X160700Y853700D03*
X160700Y828300D03*
X186100Y853700D03*
X186100Y828300D03*
X211500Y853700D03*
X211500Y828300D03*
X236900Y853700D03*
X236900Y828300D03*
X262300Y853700D03*
X262300Y828300D03*
X287700Y853700D03*
X287700Y828300D03*
X313100Y853700D03*
X313100Y828300D03*
X338500Y853700D03*
X338500Y828300D03*
X363900Y853700D03*
X363900Y828300D03*
X389300Y853700D03*
X389300Y828300D03*
X414700Y853700D03*
X414700Y828300D03*
X440100Y853700D03*
X440100Y828300D03*
X465500Y853700D03*
X465500Y828300D03*
X490900Y853700D03*
X490900Y828300D03*
X516300Y853700D03*
X516300Y828300D03*
D12*
X50800Y50800D03*
X50800Y1219200D03*
X1981200Y50800D03*
X1981200Y1219200D03*
D13*
X316500Y279000D03*
X316500Y229000D03*
X191500Y229000D03*
X191500Y279000D03*
X443500Y482200D03*
X443500Y432200D03*
X318500Y432200D03*
X318500Y482200D03*
X570500Y279000D03*
X570500Y229000D03*
X445500Y229000D03*
X445500Y279000D03*
X697500Y482200D03*
X697500Y432200D03*
X572500Y432200D03*
X572500Y482200D03*
X824500Y279000D03*
X824500Y229000D03*
X699500Y229000D03*
X699500Y279000D03*
X1078500Y279000D03*
X1078500Y229000D03*
X953500Y229000D03*
X953500Y279000D03*
X1205500Y482200D03*
X1205500Y432200D03*
X1080500Y432200D03*
X1080500Y482200D03*
X1332500Y279000D03*
X1332500Y229000D03*
X1207500Y229000D03*
X1207500Y279000D03*
X1459500Y482200D03*
X1459500Y432200D03*
X1334500Y432200D03*
X1334500Y482200D03*
X1586500Y279000D03*
X1586500Y229000D03*
X1461500Y229000D03*
X1461500Y279000D03*
X1713500Y482200D03*
X1713500Y432200D03*
X1588500Y432200D03*
X1588500Y482200D03*
X1840500Y279000D03*
X1840500Y229000D03*
X1715500Y229000D03*
X1715500Y279000D03*
D14*
X991000Y812800D03*
X1041000Y812800D03*
X1016000Y787800D03*
X1626000Y812800D03*
X1676000Y812800D03*
X1651000Y787800D03*
X102000Y584200D03*
X152000Y584200D03*
X127000Y559200D03*
X635400Y914400D03*
X685400Y914400D03*
X660400Y889400D03*
X356000Y787400D03*
X406000Y787400D03*
X381000Y762400D03*
D15*
X456800Y1041400D03*
X308500Y1041400D03*
X1651000Y1117200D03*
X1651000Y968900D03*
X1016000Y1117200D03*
X1016000Y968900D03*
D16*
X1955800Y660400D03*
X762000Y660400D03*
X330200Y50800D03*
X584200Y50800D03*
X838200Y50800D03*
X1092200Y50800D03*
X1346200Y50800D03*
X1600200Y50800D03*
X1854200Y50800D03*
X1651000Y609600D03*
X1397000Y609600D03*
X1143000Y609600D03*
X635000Y584200D03*
X381000Y584200D03*
X1803400Y660400D03*
D17*
X443500Y432200D02*
X318500Y432200D01*
X177800Y572900D01*
X177800Y635000D01*
X109900Y702900D02*
X109900Y828300D01*
X109900Y702900D02*
X177800Y635000D01*
X191500Y229000D02*
X316500Y229000D01*
X191500Y229000D02*
X38100Y382400D01*
X38100Y781900D02*
X84500Y828300D01*
X38100Y781900D02*
X38100Y382400D01*
X572500Y432200D02*
X697500Y432200D01*
X572500Y432200D02*
X508000Y496700D01*
X508000Y558800D01*
X406400Y660400D01*
X330200Y660400D01*
X186100Y804500D01*
X186100Y828300D01*
X445500Y229000D02*
X570500Y229000D01*
X445500Y229000D02*
X445500Y259753D01*
X431890Y273363D01*
X431890Y355690D01*
X463550Y387350D01*
X463550Y501650D01*
X431800Y533400D02*
X406400Y533400D01*
X135300Y804500D01*
X135300Y828300D01*
X431800Y533400D02*
X463550Y501650D01*
X699500Y229000D02*
X824500Y229000D01*
X699500Y229000D02*
X482600Y445900D01*
X482600Y558800D02*
X406400Y635000D01*
X330200Y635000D01*
X160700Y804500D01*
X160700Y828300D01*
X482600Y558800D02*
X482600Y445900D01*
X1080500Y432200D02*
X1205500Y432200D01*
X1080500Y432200D02*
X888600Y432200D01*
X660400Y660400D02*
X533400Y660400D01*
X457200Y736600D01*
X330200Y736600D01*
X313100Y844465D02*
X313100Y853700D01*
X313100Y844465D02*
X301670Y833035D01*
X301670Y765130D02*
X330200Y736600D01*
X301670Y765130D02*
X301670Y833035D01*
X660400Y660400D02*
X888600Y432200D01*
X953500Y229000D02*
X1078500Y229000D01*
X953500Y229000D02*
X787400Y395100D01*
X787400Y457200D01*
X711200Y533400D01*
X457200Y685800D02*
X330200Y685800D01*
X273050Y742950D01*
X273050Y822886D02*
X273730Y823566D01*
X273730Y839730D02*
X287700Y853700D01*
X273730Y839730D02*
X273730Y823566D01*
X609600Y533400D02*
X711200Y533400D01*
X609600Y533400D02*
X457200Y685800D01*
X273050Y742950D02*
X273050Y822886D01*
X1334500Y432200D02*
X1459500Y432200D01*
X1334500Y432200D02*
X1309500Y457200D01*
X1270000Y457200D01*
X404800Y762000D02*
X338500Y828300D01*
X1193800Y533400D02*
X1270000Y457200D01*
X1193800Y533400D02*
X838200Y533400D01*
X609600Y762000D01*
X404800Y762000D01*
X1207500Y229000D02*
X1332500Y229000D01*
X1207500Y229000D02*
X1080900Y355600D01*
X457200Y711200D02*
X330200Y711200D01*
X287700Y753700D01*
X287700Y828300D01*
X939800Y355600D02*
X1080900Y355600D01*
X939800Y355600D02*
X660400Y635000D01*
X533400Y635000D01*
X457200Y711200D01*
X1588500Y432200D02*
X1713500Y432200D01*
X1588500Y432200D02*
X1487300Y533400D01*
X1295400Y533400D02*
X1193800Y635000D01*
X379400Y812800D02*
X363900Y828300D01*
X1295400Y533400D02*
X1487300Y533400D01*
X1193800Y635000D02*
X812800Y635000D01*
X635000Y812800D01*
X379400Y812800D01*
X1461500Y229000D02*
X1586500Y229000D01*
X1461500Y229000D02*
X1233300Y457200D01*
X889000Y457200D02*
X660400Y685800D01*
X520700Y685800D02*
X457200Y749300D01*
X336550Y749300D01*
X313100Y772750D01*
X313100Y828300D01*
X889000Y457200D02*
X1233300Y457200D01*
X660400Y685800D02*
X520700Y685800D01*
X1715500Y229000D02*
X1840500Y229000D01*
X1840500Y259753D01*
X1826890Y273363D01*
X1826890Y535310D02*
X1676400Y685800D01*
X1826890Y535310D02*
X1826890Y273363D01*
X1676400Y685800D02*
X889000Y685800D01*
X736600Y838200D01*
X736600Y1143000D01*
X685800Y1193800D01*
X349930Y1102966D02*
X343235Y1096270D01*
X327070Y1096270D02*
X313100Y1082300D01*
X327070Y1096270D02*
X343235Y1096270D01*
X349930Y1109895D02*
X433836Y1193800D01*
X349930Y1109895D02*
X349930Y1102966D01*
X433836Y1193800D02*
X685800Y1193800D01*
M02*
