G04 EAGLE Gerber RS-274X export*
G75*
%MOMM*%
%FSLAX34Y34*%
%LPD*%
%IN*%
%IPPOS*%
%AMOC8*
5,1,8,0,0,1.08239X$1,22.5*%
G01*
%ADD10C,0.254000*%


D10*
X0Y0D02*
X2032000Y0D01*
X2032000Y1270000D01*
X0Y1270000D01*
X0Y0D01*
X261500Y297382D02*
X261428Y296648D01*
X261284Y295925D01*
X261070Y295220D01*
X260788Y294539D01*
X260441Y293890D01*
X260031Y293277D01*
X259564Y292707D01*
X259043Y292186D01*
X258473Y291719D01*
X257860Y291309D01*
X257211Y290962D01*
X256530Y290680D01*
X255825Y290466D01*
X255102Y290322D01*
X254368Y290250D01*
X253632Y290250D01*
X252898Y290322D01*
X252175Y290466D01*
X251470Y290680D01*
X250789Y290962D01*
X250140Y291309D01*
X249527Y291719D01*
X248957Y292186D01*
X248436Y292707D01*
X247969Y293277D01*
X247559Y293890D01*
X247212Y294539D01*
X246930Y295220D01*
X246716Y295925D01*
X246572Y296648D01*
X246500Y297382D01*
X246500Y298118D01*
X246572Y298852D01*
X246716Y299575D01*
X246930Y300280D01*
X247212Y300961D01*
X247559Y301610D01*
X247969Y302223D01*
X248436Y302793D01*
X248957Y303314D01*
X249527Y303781D01*
X250140Y304191D01*
X250789Y304538D01*
X251470Y304820D01*
X252175Y305034D01*
X252898Y305178D01*
X253632Y305250D01*
X254368Y305250D01*
X255102Y305178D01*
X255825Y305034D01*
X256530Y304820D01*
X257211Y304538D01*
X257860Y304191D01*
X258473Y303781D01*
X259043Y303314D01*
X259564Y302793D01*
X260031Y302223D01*
X260441Y301610D01*
X260788Y300961D01*
X261070Y300280D01*
X261284Y299575D01*
X261428Y298852D01*
X261500Y298118D01*
X261500Y297382D01*
X260250Y209882D02*
X260178Y209148D01*
X260034Y208425D01*
X259820Y207720D01*
X259538Y207039D01*
X259191Y206390D01*
X258781Y205777D01*
X258314Y205207D01*
X257793Y204686D01*
X257223Y204219D01*
X256610Y203809D01*
X255961Y203462D01*
X255280Y203180D01*
X254575Y202966D01*
X253852Y202822D01*
X253118Y202750D01*
X252382Y202750D01*
X251648Y202822D01*
X250925Y202966D01*
X250220Y203180D01*
X249539Y203462D01*
X248890Y203809D01*
X248277Y204219D01*
X247707Y204686D01*
X247186Y205207D01*
X246719Y205777D01*
X246309Y206390D01*
X245962Y207039D01*
X245680Y207720D01*
X245466Y208425D01*
X245322Y209148D01*
X245250Y209882D01*
X245250Y210618D01*
X245322Y211352D01*
X245466Y212075D01*
X245680Y212780D01*
X245962Y213461D01*
X246309Y214110D01*
X246719Y214723D01*
X247186Y215293D01*
X247707Y215814D01*
X248277Y216281D01*
X248890Y216691D01*
X249539Y217038D01*
X250220Y217320D01*
X250925Y217534D01*
X251648Y217678D01*
X252382Y217750D01*
X253118Y217750D01*
X253852Y217678D01*
X254575Y217534D01*
X255280Y217320D01*
X255961Y217038D01*
X256610Y216691D01*
X257223Y216281D01*
X257793Y215814D01*
X258314Y215293D01*
X258781Y214723D01*
X259191Y214110D01*
X259538Y213461D01*
X259820Y212780D01*
X260034Y212075D01*
X260178Y211352D01*
X260250Y210618D01*
X260250Y209882D01*
X388500Y500582D02*
X388428Y499848D01*
X388284Y499125D01*
X388070Y498420D01*
X387788Y497739D01*
X387441Y497090D01*
X387031Y496477D01*
X386564Y495907D01*
X386043Y495386D01*
X385473Y494919D01*
X384860Y494509D01*
X384211Y494162D01*
X383530Y493880D01*
X382825Y493666D01*
X382102Y493522D01*
X381368Y493450D01*
X380632Y493450D01*
X379898Y493522D01*
X379175Y493666D01*
X378470Y493880D01*
X377789Y494162D01*
X377140Y494509D01*
X376527Y494919D01*
X375957Y495386D01*
X375436Y495907D01*
X374969Y496477D01*
X374559Y497090D01*
X374212Y497739D01*
X373930Y498420D01*
X373716Y499125D01*
X373572Y499848D01*
X373500Y500582D01*
X373500Y501318D01*
X373572Y502052D01*
X373716Y502775D01*
X373930Y503480D01*
X374212Y504161D01*
X374559Y504810D01*
X374969Y505423D01*
X375436Y505993D01*
X375957Y506514D01*
X376527Y506981D01*
X377140Y507391D01*
X377789Y507738D01*
X378470Y508020D01*
X379175Y508234D01*
X379898Y508378D01*
X380632Y508450D01*
X381368Y508450D01*
X382102Y508378D01*
X382825Y508234D01*
X383530Y508020D01*
X384211Y507738D01*
X384860Y507391D01*
X385473Y506981D01*
X386043Y506514D01*
X386564Y505993D01*
X387031Y505423D01*
X387441Y504810D01*
X387788Y504161D01*
X388070Y503480D01*
X388284Y502775D01*
X388428Y502052D01*
X388500Y501318D01*
X388500Y500582D01*
X387250Y413082D02*
X387178Y412348D01*
X387034Y411625D01*
X386820Y410920D01*
X386538Y410239D01*
X386191Y409590D01*
X385781Y408977D01*
X385314Y408407D01*
X384793Y407886D01*
X384223Y407419D01*
X383610Y407009D01*
X382961Y406662D01*
X382280Y406380D01*
X381575Y406166D01*
X380852Y406022D01*
X380118Y405950D01*
X379382Y405950D01*
X378648Y406022D01*
X377925Y406166D01*
X377220Y406380D01*
X376539Y406662D01*
X375890Y407009D01*
X375277Y407419D01*
X374707Y407886D01*
X374186Y408407D01*
X373719Y408977D01*
X373309Y409590D01*
X372962Y410239D01*
X372680Y410920D01*
X372466Y411625D01*
X372322Y412348D01*
X372250Y413082D01*
X372250Y413818D01*
X372322Y414552D01*
X372466Y415275D01*
X372680Y415980D01*
X372962Y416661D01*
X373309Y417310D01*
X373719Y417923D01*
X374186Y418493D01*
X374707Y419014D01*
X375277Y419481D01*
X375890Y419891D01*
X376539Y420238D01*
X377220Y420520D01*
X377925Y420734D01*
X378648Y420878D01*
X379382Y420950D01*
X380118Y420950D01*
X380852Y420878D01*
X381575Y420734D01*
X382280Y420520D01*
X382961Y420238D01*
X383610Y419891D01*
X384223Y419481D01*
X384793Y419014D01*
X385314Y418493D01*
X385781Y417923D01*
X386191Y417310D01*
X386538Y416661D01*
X386820Y415980D01*
X387034Y415275D01*
X387178Y414552D01*
X387250Y413818D01*
X387250Y413082D01*
X515500Y297382D02*
X515428Y296648D01*
X515284Y295925D01*
X515070Y295220D01*
X514788Y294539D01*
X514441Y293890D01*
X514031Y293277D01*
X513564Y292707D01*
X513043Y292186D01*
X512473Y291719D01*
X511860Y291309D01*
X511211Y290962D01*
X510530Y290680D01*
X509825Y290466D01*
X509102Y290322D01*
X508368Y290250D01*
X507632Y290250D01*
X506898Y290322D01*
X506175Y290466D01*
X505470Y290680D01*
X504789Y290962D01*
X504140Y291309D01*
X503527Y291719D01*
X502957Y292186D01*
X502436Y292707D01*
X501969Y293277D01*
X501559Y293890D01*
X501212Y294539D01*
X500930Y295220D01*
X500716Y295925D01*
X500572Y296648D01*
X500500Y297382D01*
X500500Y298118D01*
X500572Y298852D01*
X500716Y299575D01*
X500930Y300280D01*
X501212Y300961D01*
X501559Y301610D01*
X501969Y302223D01*
X502436Y302793D01*
X502957Y303314D01*
X503527Y303781D01*
X504140Y304191D01*
X504789Y304538D01*
X505470Y304820D01*
X506175Y305034D01*
X506898Y305178D01*
X507632Y305250D01*
X508368Y305250D01*
X509102Y305178D01*
X509825Y305034D01*
X510530Y304820D01*
X511211Y304538D01*
X511860Y304191D01*
X512473Y303781D01*
X513043Y303314D01*
X513564Y302793D01*
X514031Y302223D01*
X514441Y301610D01*
X514788Y300961D01*
X515070Y300280D01*
X515284Y299575D01*
X515428Y298852D01*
X515500Y298118D01*
X515500Y297382D01*
X514250Y209882D02*
X514178Y209148D01*
X514034Y208425D01*
X513820Y207720D01*
X513538Y207039D01*
X513191Y206390D01*
X512781Y205777D01*
X512314Y205207D01*
X511793Y204686D01*
X511223Y204219D01*
X510610Y203809D01*
X509961Y203462D01*
X509280Y203180D01*
X508575Y202966D01*
X507852Y202822D01*
X507118Y202750D01*
X506382Y202750D01*
X505648Y202822D01*
X504925Y202966D01*
X504220Y203180D01*
X503539Y203462D01*
X502890Y203809D01*
X502277Y204219D01*
X501707Y204686D01*
X501186Y205207D01*
X500719Y205777D01*
X500309Y206390D01*
X499962Y207039D01*
X499680Y207720D01*
X499466Y208425D01*
X499322Y209148D01*
X499250Y209882D01*
X499250Y210618D01*
X499322Y211352D01*
X499466Y212075D01*
X499680Y212780D01*
X499962Y213461D01*
X500309Y214110D01*
X500719Y214723D01*
X501186Y215293D01*
X501707Y215814D01*
X502277Y216281D01*
X502890Y216691D01*
X503539Y217038D01*
X504220Y217320D01*
X504925Y217534D01*
X505648Y217678D01*
X506382Y217750D01*
X507118Y217750D01*
X507852Y217678D01*
X508575Y217534D01*
X509280Y217320D01*
X509961Y217038D01*
X510610Y216691D01*
X511223Y216281D01*
X511793Y215814D01*
X512314Y215293D01*
X512781Y214723D01*
X513191Y214110D01*
X513538Y213461D01*
X513820Y212780D01*
X514034Y212075D01*
X514178Y211352D01*
X514250Y210618D01*
X514250Y209882D01*
X642500Y500582D02*
X642428Y499848D01*
X642284Y499125D01*
X642070Y498420D01*
X641788Y497739D01*
X641441Y497090D01*
X641031Y496477D01*
X640564Y495907D01*
X640043Y495386D01*
X639473Y494919D01*
X638860Y494509D01*
X638211Y494162D01*
X637530Y493880D01*
X636825Y493666D01*
X636102Y493522D01*
X635368Y493450D01*
X634632Y493450D01*
X633898Y493522D01*
X633175Y493666D01*
X632470Y493880D01*
X631789Y494162D01*
X631140Y494509D01*
X630527Y494919D01*
X629957Y495386D01*
X629436Y495907D01*
X628969Y496477D01*
X628559Y497090D01*
X628212Y497739D01*
X627930Y498420D01*
X627716Y499125D01*
X627572Y499848D01*
X627500Y500582D01*
X627500Y501318D01*
X627572Y502052D01*
X627716Y502775D01*
X627930Y503480D01*
X628212Y504161D01*
X628559Y504810D01*
X628969Y505423D01*
X629436Y505993D01*
X629957Y506514D01*
X630527Y506981D01*
X631140Y507391D01*
X631789Y507738D01*
X632470Y508020D01*
X633175Y508234D01*
X633898Y508378D01*
X634632Y508450D01*
X635368Y508450D01*
X636102Y508378D01*
X636825Y508234D01*
X637530Y508020D01*
X638211Y507738D01*
X638860Y507391D01*
X639473Y506981D01*
X640043Y506514D01*
X640564Y505993D01*
X641031Y505423D01*
X641441Y504810D01*
X641788Y504161D01*
X642070Y503480D01*
X642284Y502775D01*
X642428Y502052D01*
X642500Y501318D01*
X642500Y500582D01*
X641250Y413082D02*
X641178Y412348D01*
X641034Y411625D01*
X640820Y410920D01*
X640538Y410239D01*
X640191Y409590D01*
X639781Y408977D01*
X639314Y408407D01*
X638793Y407886D01*
X638223Y407419D01*
X637610Y407009D01*
X636961Y406662D01*
X636280Y406380D01*
X635575Y406166D01*
X634852Y406022D01*
X634118Y405950D01*
X633382Y405950D01*
X632648Y406022D01*
X631925Y406166D01*
X631220Y406380D01*
X630539Y406662D01*
X629890Y407009D01*
X629277Y407419D01*
X628707Y407886D01*
X628186Y408407D01*
X627719Y408977D01*
X627309Y409590D01*
X626962Y410239D01*
X626680Y410920D01*
X626466Y411625D01*
X626322Y412348D01*
X626250Y413082D01*
X626250Y413818D01*
X626322Y414552D01*
X626466Y415275D01*
X626680Y415980D01*
X626962Y416661D01*
X627309Y417310D01*
X627719Y417923D01*
X628186Y418493D01*
X628707Y419014D01*
X629277Y419481D01*
X629890Y419891D01*
X630539Y420238D01*
X631220Y420520D01*
X631925Y420734D01*
X632648Y420878D01*
X633382Y420950D01*
X634118Y420950D01*
X634852Y420878D01*
X635575Y420734D01*
X636280Y420520D01*
X636961Y420238D01*
X637610Y419891D01*
X638223Y419481D01*
X638793Y419014D01*
X639314Y418493D01*
X639781Y417923D01*
X640191Y417310D01*
X640538Y416661D01*
X640820Y415980D01*
X641034Y415275D01*
X641178Y414552D01*
X641250Y413818D01*
X641250Y413082D01*
X769500Y297382D02*
X769428Y296648D01*
X769284Y295925D01*
X769070Y295220D01*
X768788Y294539D01*
X768441Y293890D01*
X768031Y293277D01*
X767564Y292707D01*
X767043Y292186D01*
X766473Y291719D01*
X765860Y291309D01*
X765211Y290962D01*
X764530Y290680D01*
X763825Y290466D01*
X763102Y290322D01*
X762368Y290250D01*
X761632Y290250D01*
X760898Y290322D01*
X760175Y290466D01*
X759470Y290680D01*
X758789Y290962D01*
X758140Y291309D01*
X757527Y291719D01*
X756957Y292186D01*
X756436Y292707D01*
X755969Y293277D01*
X755559Y293890D01*
X755212Y294539D01*
X754930Y295220D01*
X754716Y295925D01*
X754572Y296648D01*
X754500Y297382D01*
X754500Y298118D01*
X754572Y298852D01*
X754716Y299575D01*
X754930Y300280D01*
X755212Y300961D01*
X755559Y301610D01*
X755969Y302223D01*
X756436Y302793D01*
X756957Y303314D01*
X757527Y303781D01*
X758140Y304191D01*
X758789Y304538D01*
X759470Y304820D01*
X760175Y305034D01*
X760898Y305178D01*
X761632Y305250D01*
X762368Y305250D01*
X763102Y305178D01*
X763825Y305034D01*
X764530Y304820D01*
X765211Y304538D01*
X765860Y304191D01*
X766473Y303781D01*
X767043Y303314D01*
X767564Y302793D01*
X768031Y302223D01*
X768441Y301610D01*
X768788Y300961D01*
X769070Y300280D01*
X769284Y299575D01*
X769428Y298852D01*
X769500Y298118D01*
X769500Y297382D01*
X768250Y209882D02*
X768178Y209148D01*
X768034Y208425D01*
X767820Y207720D01*
X767538Y207039D01*
X767191Y206390D01*
X766781Y205777D01*
X766314Y205207D01*
X765793Y204686D01*
X765223Y204219D01*
X764610Y203809D01*
X763961Y203462D01*
X763280Y203180D01*
X762575Y202966D01*
X761852Y202822D01*
X761118Y202750D01*
X760382Y202750D01*
X759648Y202822D01*
X758925Y202966D01*
X758220Y203180D01*
X757539Y203462D01*
X756890Y203809D01*
X756277Y204219D01*
X755707Y204686D01*
X755186Y205207D01*
X754719Y205777D01*
X754309Y206390D01*
X753962Y207039D01*
X753680Y207720D01*
X753466Y208425D01*
X753322Y209148D01*
X753250Y209882D01*
X753250Y210618D01*
X753322Y211352D01*
X753466Y212075D01*
X753680Y212780D01*
X753962Y213461D01*
X754309Y214110D01*
X754719Y214723D01*
X755186Y215293D01*
X755707Y215814D01*
X756277Y216281D01*
X756890Y216691D01*
X757539Y217038D01*
X758220Y217320D01*
X758925Y217534D01*
X759648Y217678D01*
X760382Y217750D01*
X761118Y217750D01*
X761852Y217678D01*
X762575Y217534D01*
X763280Y217320D01*
X763961Y217038D01*
X764610Y216691D01*
X765223Y216281D01*
X765793Y215814D01*
X766314Y215293D01*
X766781Y214723D01*
X767191Y214110D01*
X767538Y213461D01*
X767820Y212780D01*
X768034Y212075D01*
X768178Y211352D01*
X768250Y210618D01*
X768250Y209882D01*
X1023500Y297382D02*
X1023428Y296648D01*
X1023284Y295925D01*
X1023070Y295220D01*
X1022788Y294539D01*
X1022441Y293890D01*
X1022031Y293277D01*
X1021564Y292707D01*
X1021043Y292186D01*
X1020473Y291719D01*
X1019860Y291309D01*
X1019211Y290962D01*
X1018530Y290680D01*
X1017825Y290466D01*
X1017102Y290322D01*
X1016368Y290250D01*
X1015632Y290250D01*
X1014898Y290322D01*
X1014175Y290466D01*
X1013470Y290680D01*
X1012789Y290962D01*
X1012140Y291309D01*
X1011527Y291719D01*
X1010957Y292186D01*
X1010436Y292707D01*
X1009969Y293277D01*
X1009559Y293890D01*
X1009212Y294539D01*
X1008930Y295220D01*
X1008716Y295925D01*
X1008572Y296648D01*
X1008500Y297382D01*
X1008500Y298118D01*
X1008572Y298852D01*
X1008716Y299575D01*
X1008930Y300280D01*
X1009212Y300961D01*
X1009559Y301610D01*
X1009969Y302223D01*
X1010436Y302793D01*
X1010957Y303314D01*
X1011527Y303781D01*
X1012140Y304191D01*
X1012789Y304538D01*
X1013470Y304820D01*
X1014175Y305034D01*
X1014898Y305178D01*
X1015632Y305250D01*
X1016368Y305250D01*
X1017102Y305178D01*
X1017825Y305034D01*
X1018530Y304820D01*
X1019211Y304538D01*
X1019860Y304191D01*
X1020473Y303781D01*
X1021043Y303314D01*
X1021564Y302793D01*
X1022031Y302223D01*
X1022441Y301610D01*
X1022788Y300961D01*
X1023070Y300280D01*
X1023284Y299575D01*
X1023428Y298852D01*
X1023500Y298118D01*
X1023500Y297382D01*
X1022250Y209882D02*
X1022178Y209148D01*
X1022034Y208425D01*
X1021820Y207720D01*
X1021538Y207039D01*
X1021191Y206390D01*
X1020781Y205777D01*
X1020314Y205207D01*
X1019793Y204686D01*
X1019223Y204219D01*
X1018610Y203809D01*
X1017961Y203462D01*
X1017280Y203180D01*
X1016575Y202966D01*
X1015852Y202822D01*
X1015118Y202750D01*
X1014382Y202750D01*
X1013648Y202822D01*
X1012925Y202966D01*
X1012220Y203180D01*
X1011539Y203462D01*
X1010890Y203809D01*
X1010277Y204219D01*
X1009707Y204686D01*
X1009186Y205207D01*
X1008719Y205777D01*
X1008309Y206390D01*
X1007962Y207039D01*
X1007680Y207720D01*
X1007466Y208425D01*
X1007322Y209148D01*
X1007250Y209882D01*
X1007250Y210618D01*
X1007322Y211352D01*
X1007466Y212075D01*
X1007680Y212780D01*
X1007962Y213461D01*
X1008309Y214110D01*
X1008719Y214723D01*
X1009186Y215293D01*
X1009707Y215814D01*
X1010277Y216281D01*
X1010890Y216691D01*
X1011539Y217038D01*
X1012220Y217320D01*
X1012925Y217534D01*
X1013648Y217678D01*
X1014382Y217750D01*
X1015118Y217750D01*
X1015852Y217678D01*
X1016575Y217534D01*
X1017280Y217320D01*
X1017961Y217038D01*
X1018610Y216691D01*
X1019223Y216281D01*
X1019793Y215814D01*
X1020314Y215293D01*
X1020781Y214723D01*
X1021191Y214110D01*
X1021538Y213461D01*
X1021820Y212780D01*
X1022034Y212075D01*
X1022178Y211352D01*
X1022250Y210618D01*
X1022250Y209882D01*
X1150500Y500582D02*
X1150428Y499848D01*
X1150284Y499125D01*
X1150070Y498420D01*
X1149788Y497739D01*
X1149441Y497090D01*
X1149031Y496477D01*
X1148564Y495907D01*
X1148043Y495386D01*
X1147473Y494919D01*
X1146860Y494509D01*
X1146211Y494162D01*
X1145530Y493880D01*
X1144825Y493666D01*
X1144102Y493522D01*
X1143368Y493450D01*
X1142632Y493450D01*
X1141898Y493522D01*
X1141175Y493666D01*
X1140470Y493880D01*
X1139789Y494162D01*
X1139140Y494509D01*
X1138527Y494919D01*
X1137957Y495386D01*
X1137436Y495907D01*
X1136969Y496477D01*
X1136559Y497090D01*
X1136212Y497739D01*
X1135930Y498420D01*
X1135716Y499125D01*
X1135572Y499848D01*
X1135500Y500582D01*
X1135500Y501318D01*
X1135572Y502052D01*
X1135716Y502775D01*
X1135930Y503480D01*
X1136212Y504161D01*
X1136559Y504810D01*
X1136969Y505423D01*
X1137436Y505993D01*
X1137957Y506514D01*
X1138527Y506981D01*
X1139140Y507391D01*
X1139789Y507738D01*
X1140470Y508020D01*
X1141175Y508234D01*
X1141898Y508378D01*
X1142632Y508450D01*
X1143368Y508450D01*
X1144102Y508378D01*
X1144825Y508234D01*
X1145530Y508020D01*
X1146211Y507738D01*
X1146860Y507391D01*
X1147473Y506981D01*
X1148043Y506514D01*
X1148564Y505993D01*
X1149031Y505423D01*
X1149441Y504810D01*
X1149788Y504161D01*
X1150070Y503480D01*
X1150284Y502775D01*
X1150428Y502052D01*
X1150500Y501318D01*
X1150500Y500582D01*
X1149250Y413082D02*
X1149178Y412348D01*
X1149034Y411625D01*
X1148820Y410920D01*
X1148538Y410239D01*
X1148191Y409590D01*
X1147781Y408977D01*
X1147314Y408407D01*
X1146793Y407886D01*
X1146223Y407419D01*
X1145610Y407009D01*
X1144961Y406662D01*
X1144280Y406380D01*
X1143575Y406166D01*
X1142852Y406022D01*
X1142118Y405950D01*
X1141382Y405950D01*
X1140648Y406022D01*
X1139925Y406166D01*
X1139220Y406380D01*
X1138539Y406662D01*
X1137890Y407009D01*
X1137277Y407419D01*
X1136707Y407886D01*
X1136186Y408407D01*
X1135719Y408977D01*
X1135309Y409590D01*
X1134962Y410239D01*
X1134680Y410920D01*
X1134466Y411625D01*
X1134322Y412348D01*
X1134250Y413082D01*
X1134250Y413818D01*
X1134322Y414552D01*
X1134466Y415275D01*
X1134680Y415980D01*
X1134962Y416661D01*
X1135309Y417310D01*
X1135719Y417923D01*
X1136186Y418493D01*
X1136707Y419014D01*
X1137277Y419481D01*
X1137890Y419891D01*
X1138539Y420238D01*
X1139220Y420520D01*
X1139925Y420734D01*
X1140648Y420878D01*
X1141382Y420950D01*
X1142118Y420950D01*
X1142852Y420878D01*
X1143575Y420734D01*
X1144280Y420520D01*
X1144961Y420238D01*
X1145610Y419891D01*
X1146223Y419481D01*
X1146793Y419014D01*
X1147314Y418493D01*
X1147781Y417923D01*
X1148191Y417310D01*
X1148538Y416661D01*
X1148820Y415980D01*
X1149034Y415275D01*
X1149178Y414552D01*
X1149250Y413818D01*
X1149250Y413082D01*
X1277500Y297382D02*
X1277428Y296648D01*
X1277284Y295925D01*
X1277070Y295220D01*
X1276788Y294539D01*
X1276441Y293890D01*
X1276031Y293277D01*
X1275564Y292707D01*
X1275043Y292186D01*
X1274473Y291719D01*
X1273860Y291309D01*
X1273211Y290962D01*
X1272530Y290680D01*
X1271825Y290466D01*
X1271102Y290322D01*
X1270368Y290250D01*
X1269632Y290250D01*
X1268898Y290322D01*
X1268175Y290466D01*
X1267470Y290680D01*
X1266789Y290962D01*
X1266140Y291309D01*
X1265527Y291719D01*
X1264957Y292186D01*
X1264436Y292707D01*
X1263969Y293277D01*
X1263559Y293890D01*
X1263212Y294539D01*
X1262930Y295220D01*
X1262716Y295925D01*
X1262572Y296648D01*
X1262500Y297382D01*
X1262500Y298118D01*
X1262572Y298852D01*
X1262716Y299575D01*
X1262930Y300280D01*
X1263212Y300961D01*
X1263559Y301610D01*
X1263969Y302223D01*
X1264436Y302793D01*
X1264957Y303314D01*
X1265527Y303781D01*
X1266140Y304191D01*
X1266789Y304538D01*
X1267470Y304820D01*
X1268175Y305034D01*
X1268898Y305178D01*
X1269632Y305250D01*
X1270368Y305250D01*
X1271102Y305178D01*
X1271825Y305034D01*
X1272530Y304820D01*
X1273211Y304538D01*
X1273860Y304191D01*
X1274473Y303781D01*
X1275043Y303314D01*
X1275564Y302793D01*
X1276031Y302223D01*
X1276441Y301610D01*
X1276788Y300961D01*
X1277070Y300280D01*
X1277284Y299575D01*
X1277428Y298852D01*
X1277500Y298118D01*
X1277500Y297382D01*
X1276250Y209882D02*
X1276178Y209148D01*
X1276034Y208425D01*
X1275820Y207720D01*
X1275538Y207039D01*
X1275191Y206390D01*
X1274781Y205777D01*
X1274314Y205207D01*
X1273793Y204686D01*
X1273223Y204219D01*
X1272610Y203809D01*
X1271961Y203462D01*
X1271280Y203180D01*
X1270575Y202966D01*
X1269852Y202822D01*
X1269118Y202750D01*
X1268382Y202750D01*
X1267648Y202822D01*
X1266925Y202966D01*
X1266220Y203180D01*
X1265539Y203462D01*
X1264890Y203809D01*
X1264277Y204219D01*
X1263707Y204686D01*
X1263186Y205207D01*
X1262719Y205777D01*
X1262309Y206390D01*
X1261962Y207039D01*
X1261680Y207720D01*
X1261466Y208425D01*
X1261322Y209148D01*
X1261250Y209882D01*
X1261250Y210618D01*
X1261322Y211352D01*
X1261466Y212075D01*
X1261680Y212780D01*
X1261962Y213461D01*
X1262309Y214110D01*
X1262719Y214723D01*
X1263186Y215293D01*
X1263707Y215814D01*
X1264277Y216281D01*
X1264890Y216691D01*
X1265539Y217038D01*
X1266220Y217320D01*
X1266925Y217534D01*
X1267648Y217678D01*
X1268382Y217750D01*
X1269118Y217750D01*
X1269852Y217678D01*
X1270575Y217534D01*
X1271280Y217320D01*
X1271961Y217038D01*
X1272610Y216691D01*
X1273223Y216281D01*
X1273793Y215814D01*
X1274314Y215293D01*
X1274781Y214723D01*
X1275191Y214110D01*
X1275538Y213461D01*
X1275820Y212780D01*
X1276034Y212075D01*
X1276178Y211352D01*
X1276250Y210618D01*
X1276250Y209882D01*
X1404500Y500582D02*
X1404428Y499848D01*
X1404284Y499125D01*
X1404070Y498420D01*
X1403788Y497739D01*
X1403441Y497090D01*
X1403031Y496477D01*
X1402564Y495907D01*
X1402043Y495386D01*
X1401473Y494919D01*
X1400860Y494509D01*
X1400211Y494162D01*
X1399530Y493880D01*
X1398825Y493666D01*
X1398102Y493522D01*
X1397368Y493450D01*
X1396632Y493450D01*
X1395898Y493522D01*
X1395175Y493666D01*
X1394470Y493880D01*
X1393789Y494162D01*
X1393140Y494509D01*
X1392527Y494919D01*
X1391957Y495386D01*
X1391436Y495907D01*
X1390969Y496477D01*
X1390559Y497090D01*
X1390212Y497739D01*
X1389930Y498420D01*
X1389716Y499125D01*
X1389572Y499848D01*
X1389500Y500582D01*
X1389500Y501318D01*
X1389572Y502052D01*
X1389716Y502775D01*
X1389930Y503480D01*
X1390212Y504161D01*
X1390559Y504810D01*
X1390969Y505423D01*
X1391436Y505993D01*
X1391957Y506514D01*
X1392527Y506981D01*
X1393140Y507391D01*
X1393789Y507738D01*
X1394470Y508020D01*
X1395175Y508234D01*
X1395898Y508378D01*
X1396632Y508450D01*
X1397368Y508450D01*
X1398102Y508378D01*
X1398825Y508234D01*
X1399530Y508020D01*
X1400211Y507738D01*
X1400860Y507391D01*
X1401473Y506981D01*
X1402043Y506514D01*
X1402564Y505993D01*
X1403031Y505423D01*
X1403441Y504810D01*
X1403788Y504161D01*
X1404070Y503480D01*
X1404284Y502775D01*
X1404428Y502052D01*
X1404500Y501318D01*
X1404500Y500582D01*
X1403250Y413082D02*
X1403178Y412348D01*
X1403034Y411625D01*
X1402820Y410920D01*
X1402538Y410239D01*
X1402191Y409590D01*
X1401781Y408977D01*
X1401314Y408407D01*
X1400793Y407886D01*
X1400223Y407419D01*
X1399610Y407009D01*
X1398961Y406662D01*
X1398280Y406380D01*
X1397575Y406166D01*
X1396852Y406022D01*
X1396118Y405950D01*
X1395382Y405950D01*
X1394648Y406022D01*
X1393925Y406166D01*
X1393220Y406380D01*
X1392539Y406662D01*
X1391890Y407009D01*
X1391277Y407419D01*
X1390707Y407886D01*
X1390186Y408407D01*
X1389719Y408977D01*
X1389309Y409590D01*
X1388962Y410239D01*
X1388680Y410920D01*
X1388466Y411625D01*
X1388322Y412348D01*
X1388250Y413082D01*
X1388250Y413818D01*
X1388322Y414552D01*
X1388466Y415275D01*
X1388680Y415980D01*
X1388962Y416661D01*
X1389309Y417310D01*
X1389719Y417923D01*
X1390186Y418493D01*
X1390707Y419014D01*
X1391277Y419481D01*
X1391890Y419891D01*
X1392539Y420238D01*
X1393220Y420520D01*
X1393925Y420734D01*
X1394648Y420878D01*
X1395382Y420950D01*
X1396118Y420950D01*
X1396852Y420878D01*
X1397575Y420734D01*
X1398280Y420520D01*
X1398961Y420238D01*
X1399610Y419891D01*
X1400223Y419481D01*
X1400793Y419014D01*
X1401314Y418493D01*
X1401781Y417923D01*
X1402191Y417310D01*
X1402538Y416661D01*
X1402820Y415980D01*
X1403034Y415275D01*
X1403178Y414552D01*
X1403250Y413818D01*
X1403250Y413082D01*
X1531500Y297382D02*
X1531428Y296648D01*
X1531284Y295925D01*
X1531070Y295220D01*
X1530788Y294539D01*
X1530441Y293890D01*
X1530031Y293277D01*
X1529564Y292707D01*
X1529043Y292186D01*
X1528473Y291719D01*
X1527860Y291309D01*
X1527211Y290962D01*
X1526530Y290680D01*
X1525825Y290466D01*
X1525102Y290322D01*
X1524368Y290250D01*
X1523632Y290250D01*
X1522898Y290322D01*
X1522175Y290466D01*
X1521470Y290680D01*
X1520789Y290962D01*
X1520140Y291309D01*
X1519527Y291719D01*
X1518957Y292186D01*
X1518436Y292707D01*
X1517969Y293277D01*
X1517559Y293890D01*
X1517212Y294539D01*
X1516930Y295220D01*
X1516716Y295925D01*
X1516572Y296648D01*
X1516500Y297382D01*
X1516500Y298118D01*
X1516572Y298852D01*
X1516716Y299575D01*
X1516930Y300280D01*
X1517212Y300961D01*
X1517559Y301610D01*
X1517969Y302223D01*
X1518436Y302793D01*
X1518957Y303314D01*
X1519527Y303781D01*
X1520140Y304191D01*
X1520789Y304538D01*
X1521470Y304820D01*
X1522175Y305034D01*
X1522898Y305178D01*
X1523632Y305250D01*
X1524368Y305250D01*
X1525102Y305178D01*
X1525825Y305034D01*
X1526530Y304820D01*
X1527211Y304538D01*
X1527860Y304191D01*
X1528473Y303781D01*
X1529043Y303314D01*
X1529564Y302793D01*
X1530031Y302223D01*
X1530441Y301610D01*
X1530788Y300961D01*
X1531070Y300280D01*
X1531284Y299575D01*
X1531428Y298852D01*
X1531500Y298118D01*
X1531500Y297382D01*
X1530250Y209882D02*
X1530178Y209148D01*
X1530034Y208425D01*
X1529820Y207720D01*
X1529538Y207039D01*
X1529191Y206390D01*
X1528781Y205777D01*
X1528314Y205207D01*
X1527793Y204686D01*
X1527223Y204219D01*
X1526610Y203809D01*
X1525961Y203462D01*
X1525280Y203180D01*
X1524575Y202966D01*
X1523852Y202822D01*
X1523118Y202750D01*
X1522382Y202750D01*
X1521648Y202822D01*
X1520925Y202966D01*
X1520220Y203180D01*
X1519539Y203462D01*
X1518890Y203809D01*
X1518277Y204219D01*
X1517707Y204686D01*
X1517186Y205207D01*
X1516719Y205777D01*
X1516309Y206390D01*
X1515962Y207039D01*
X1515680Y207720D01*
X1515466Y208425D01*
X1515322Y209148D01*
X1515250Y209882D01*
X1515250Y210618D01*
X1515322Y211352D01*
X1515466Y212075D01*
X1515680Y212780D01*
X1515962Y213461D01*
X1516309Y214110D01*
X1516719Y214723D01*
X1517186Y215293D01*
X1517707Y215814D01*
X1518277Y216281D01*
X1518890Y216691D01*
X1519539Y217038D01*
X1520220Y217320D01*
X1520925Y217534D01*
X1521648Y217678D01*
X1522382Y217750D01*
X1523118Y217750D01*
X1523852Y217678D01*
X1524575Y217534D01*
X1525280Y217320D01*
X1525961Y217038D01*
X1526610Y216691D01*
X1527223Y216281D01*
X1527793Y215814D01*
X1528314Y215293D01*
X1528781Y214723D01*
X1529191Y214110D01*
X1529538Y213461D01*
X1529820Y212780D01*
X1530034Y212075D01*
X1530178Y211352D01*
X1530250Y210618D01*
X1530250Y209882D01*
X1658500Y500582D02*
X1658428Y499848D01*
X1658284Y499125D01*
X1658070Y498420D01*
X1657788Y497739D01*
X1657441Y497090D01*
X1657031Y496477D01*
X1656564Y495907D01*
X1656043Y495386D01*
X1655473Y494919D01*
X1654860Y494509D01*
X1654211Y494162D01*
X1653530Y493880D01*
X1652825Y493666D01*
X1652102Y493522D01*
X1651368Y493450D01*
X1650632Y493450D01*
X1649898Y493522D01*
X1649175Y493666D01*
X1648470Y493880D01*
X1647789Y494162D01*
X1647140Y494509D01*
X1646527Y494919D01*
X1645957Y495386D01*
X1645436Y495907D01*
X1644969Y496477D01*
X1644559Y497090D01*
X1644212Y497739D01*
X1643930Y498420D01*
X1643716Y499125D01*
X1643572Y499848D01*
X1643500Y500582D01*
X1643500Y501318D01*
X1643572Y502052D01*
X1643716Y502775D01*
X1643930Y503480D01*
X1644212Y504161D01*
X1644559Y504810D01*
X1644969Y505423D01*
X1645436Y505993D01*
X1645957Y506514D01*
X1646527Y506981D01*
X1647140Y507391D01*
X1647789Y507738D01*
X1648470Y508020D01*
X1649175Y508234D01*
X1649898Y508378D01*
X1650632Y508450D01*
X1651368Y508450D01*
X1652102Y508378D01*
X1652825Y508234D01*
X1653530Y508020D01*
X1654211Y507738D01*
X1654860Y507391D01*
X1655473Y506981D01*
X1656043Y506514D01*
X1656564Y505993D01*
X1657031Y505423D01*
X1657441Y504810D01*
X1657788Y504161D01*
X1658070Y503480D01*
X1658284Y502775D01*
X1658428Y502052D01*
X1658500Y501318D01*
X1658500Y500582D01*
X1657250Y413082D02*
X1657178Y412348D01*
X1657034Y411625D01*
X1656820Y410920D01*
X1656538Y410239D01*
X1656191Y409590D01*
X1655781Y408977D01*
X1655314Y408407D01*
X1654793Y407886D01*
X1654223Y407419D01*
X1653610Y407009D01*
X1652961Y406662D01*
X1652280Y406380D01*
X1651575Y406166D01*
X1650852Y406022D01*
X1650118Y405950D01*
X1649382Y405950D01*
X1648648Y406022D01*
X1647925Y406166D01*
X1647220Y406380D01*
X1646539Y406662D01*
X1645890Y407009D01*
X1645277Y407419D01*
X1644707Y407886D01*
X1644186Y408407D01*
X1643719Y408977D01*
X1643309Y409590D01*
X1642962Y410239D01*
X1642680Y410920D01*
X1642466Y411625D01*
X1642322Y412348D01*
X1642250Y413082D01*
X1642250Y413818D01*
X1642322Y414552D01*
X1642466Y415275D01*
X1642680Y415980D01*
X1642962Y416661D01*
X1643309Y417310D01*
X1643719Y417923D01*
X1644186Y418493D01*
X1644707Y419014D01*
X1645277Y419481D01*
X1645890Y419891D01*
X1646539Y420238D01*
X1647220Y420520D01*
X1647925Y420734D01*
X1648648Y420878D01*
X1649382Y420950D01*
X1650118Y420950D01*
X1650852Y420878D01*
X1651575Y420734D01*
X1652280Y420520D01*
X1652961Y420238D01*
X1653610Y419891D01*
X1654223Y419481D01*
X1654793Y419014D01*
X1655314Y418493D01*
X1655781Y417923D01*
X1656191Y417310D01*
X1656538Y416661D01*
X1656820Y415980D01*
X1657034Y415275D01*
X1657178Y414552D01*
X1657250Y413818D01*
X1657250Y413082D01*
X1785500Y297382D02*
X1785428Y296648D01*
X1785284Y295925D01*
X1785070Y295220D01*
X1784788Y294539D01*
X1784441Y293890D01*
X1784031Y293277D01*
X1783564Y292707D01*
X1783043Y292186D01*
X1782473Y291719D01*
X1781860Y291309D01*
X1781211Y290962D01*
X1780530Y290680D01*
X1779825Y290466D01*
X1779102Y290322D01*
X1778368Y290250D01*
X1777632Y290250D01*
X1776898Y290322D01*
X1776175Y290466D01*
X1775470Y290680D01*
X1774789Y290962D01*
X1774140Y291309D01*
X1773527Y291719D01*
X1772957Y292186D01*
X1772436Y292707D01*
X1771969Y293277D01*
X1771559Y293890D01*
X1771212Y294539D01*
X1770930Y295220D01*
X1770716Y295925D01*
X1770572Y296648D01*
X1770500Y297382D01*
X1770500Y298118D01*
X1770572Y298852D01*
X1770716Y299575D01*
X1770930Y300280D01*
X1771212Y300961D01*
X1771559Y301610D01*
X1771969Y302223D01*
X1772436Y302793D01*
X1772957Y303314D01*
X1773527Y303781D01*
X1774140Y304191D01*
X1774789Y304538D01*
X1775470Y304820D01*
X1776175Y305034D01*
X1776898Y305178D01*
X1777632Y305250D01*
X1778368Y305250D01*
X1779102Y305178D01*
X1779825Y305034D01*
X1780530Y304820D01*
X1781211Y304538D01*
X1781860Y304191D01*
X1782473Y303781D01*
X1783043Y303314D01*
X1783564Y302793D01*
X1784031Y302223D01*
X1784441Y301610D01*
X1784788Y300961D01*
X1785070Y300280D01*
X1785284Y299575D01*
X1785428Y298852D01*
X1785500Y298118D01*
X1785500Y297382D01*
X1784250Y209882D02*
X1784178Y209148D01*
X1784034Y208425D01*
X1783820Y207720D01*
X1783538Y207039D01*
X1783191Y206390D01*
X1782781Y205777D01*
X1782314Y205207D01*
X1781793Y204686D01*
X1781223Y204219D01*
X1780610Y203809D01*
X1779961Y203462D01*
X1779280Y203180D01*
X1778575Y202966D01*
X1777852Y202822D01*
X1777118Y202750D01*
X1776382Y202750D01*
X1775648Y202822D01*
X1774925Y202966D01*
X1774220Y203180D01*
X1773539Y203462D01*
X1772890Y203809D01*
X1772277Y204219D01*
X1771707Y204686D01*
X1771186Y205207D01*
X1770719Y205777D01*
X1770309Y206390D01*
X1769962Y207039D01*
X1769680Y207720D01*
X1769466Y208425D01*
X1769322Y209148D01*
X1769250Y209882D01*
X1769250Y210618D01*
X1769322Y211352D01*
X1769466Y212075D01*
X1769680Y212780D01*
X1769962Y213461D01*
X1770309Y214110D01*
X1770719Y214723D01*
X1771186Y215293D01*
X1771707Y215814D01*
X1772277Y216281D01*
X1772890Y216691D01*
X1773539Y217038D01*
X1774220Y217320D01*
X1774925Y217534D01*
X1775648Y217678D01*
X1776382Y217750D01*
X1777118Y217750D01*
X1777852Y217678D01*
X1778575Y217534D01*
X1779280Y217320D01*
X1779961Y217038D01*
X1780610Y216691D01*
X1781223Y216281D01*
X1781793Y215814D01*
X1782314Y215293D01*
X1782781Y214723D01*
X1783191Y214110D01*
X1783538Y213461D01*
X1783820Y212780D01*
X1784034Y212075D01*
X1784178Y211352D01*
X1784250Y210618D01*
X1784250Y209882D01*
M02*
