G04 EAGLE Gerber RS-274X export*
G75*
%MOMM*%
%FSLAX34Y34*%
%LPD*%
%INSilkscreen Bottom*%
%IPPOS*%
%AMOC8*
5,1,8,0,0,1.08239X$1,22.5*%
G01*
%ADD10C,0.254000*%
%ADD11C,0.152400*%
%ADD12C,0.101600*%


D10*
X474130Y794270D02*
X124130Y794270D01*
X121714Y794299D01*
X119299Y794387D01*
X116887Y794533D01*
X114479Y794737D01*
X112076Y794999D01*
X109681Y795319D01*
X107294Y795697D01*
X104917Y796133D01*
X102552Y796626D01*
X100198Y797176D01*
X97859Y797782D01*
X95535Y798445D01*
X93228Y799164D01*
X90939Y799939D01*
X88670Y800768D01*
X86421Y801653D01*
X84194Y802591D01*
X81990Y803583D01*
X79811Y804627D01*
X77658Y805724D01*
X75532Y806873D01*
X73434Y808073D01*
X71366Y809323D01*
X69329Y810623D01*
X67324Y811972D01*
X65351Y813368D01*
X63414Y814812D01*
X61511Y816303D01*
X59646Y817838D01*
X57818Y819419D01*
X56028Y821043D01*
X54279Y822710D01*
X52570Y824419D01*
X50903Y826168D01*
X49279Y827958D01*
X47698Y829786D01*
X46163Y831651D01*
X44672Y833554D01*
X43228Y835491D01*
X41832Y837464D01*
X40483Y839469D01*
X39183Y841506D01*
X37933Y843574D01*
X36733Y845672D01*
X35584Y847798D01*
X34487Y849951D01*
X33443Y852130D01*
X32451Y854334D01*
X31513Y856561D01*
X30628Y858810D01*
X29799Y861079D01*
X29024Y863368D01*
X28305Y865675D01*
X27642Y867999D01*
X27036Y870338D01*
X26486Y872692D01*
X25993Y875057D01*
X25557Y877434D01*
X25179Y879821D01*
X24859Y882216D01*
X24597Y884619D01*
X24393Y887027D01*
X24247Y889439D01*
X24159Y891854D01*
X24130Y894270D01*
X24130Y1044270D01*
X24159Y1046686D01*
X24247Y1049101D01*
X24393Y1051513D01*
X24597Y1053921D01*
X24859Y1056324D01*
X25179Y1058719D01*
X25557Y1061106D01*
X25993Y1063483D01*
X26486Y1065848D01*
X27036Y1068202D01*
X27642Y1070541D01*
X28305Y1072865D01*
X29024Y1075172D01*
X29799Y1077461D01*
X30628Y1079730D01*
X31513Y1081979D01*
X32451Y1084206D01*
X33443Y1086410D01*
X34487Y1088589D01*
X35584Y1090742D01*
X36733Y1092868D01*
X37933Y1094966D01*
X39183Y1097034D01*
X40483Y1099071D01*
X41832Y1101076D01*
X43228Y1103049D01*
X44672Y1104986D01*
X46163Y1106889D01*
X47698Y1108754D01*
X49279Y1110582D01*
X50903Y1112372D01*
X52570Y1114121D01*
X54279Y1115830D01*
X56028Y1117497D01*
X57818Y1119121D01*
X59646Y1120702D01*
X61511Y1122237D01*
X63414Y1123728D01*
X65351Y1125172D01*
X67324Y1126568D01*
X69329Y1127917D01*
X71366Y1129217D01*
X73434Y1130467D01*
X75532Y1131667D01*
X77658Y1132816D01*
X79811Y1133913D01*
X81990Y1134957D01*
X84194Y1135949D01*
X86421Y1136887D01*
X88670Y1137772D01*
X90939Y1138601D01*
X93228Y1139376D01*
X95535Y1140095D01*
X97859Y1140758D01*
X100198Y1141364D01*
X102552Y1141914D01*
X104917Y1142407D01*
X107294Y1142843D01*
X109681Y1143221D01*
X112076Y1143541D01*
X114479Y1143803D01*
X116887Y1144007D01*
X119299Y1144153D01*
X121714Y1144241D01*
X124130Y1144270D01*
X474130Y1144270D01*
X476546Y1144241D01*
X478961Y1144153D01*
X481373Y1144007D01*
X483781Y1143803D01*
X486184Y1143541D01*
X488579Y1143221D01*
X490966Y1142843D01*
X493343Y1142407D01*
X495708Y1141914D01*
X498062Y1141364D01*
X500401Y1140758D01*
X502725Y1140095D01*
X505032Y1139376D01*
X507321Y1138601D01*
X509590Y1137772D01*
X511839Y1136887D01*
X514066Y1135949D01*
X516270Y1134957D01*
X518449Y1133913D01*
X520602Y1132816D01*
X522728Y1131667D01*
X524826Y1130467D01*
X526894Y1129217D01*
X528931Y1127917D01*
X530936Y1126568D01*
X532909Y1125172D01*
X534846Y1123728D01*
X536749Y1122237D01*
X538614Y1120702D01*
X540442Y1119121D01*
X542232Y1117497D01*
X543981Y1115830D01*
X545690Y1114121D01*
X547357Y1112372D01*
X548981Y1110582D01*
X550562Y1108754D01*
X552097Y1106889D01*
X553588Y1104986D01*
X555032Y1103049D01*
X556428Y1101076D01*
X557777Y1099071D01*
X559077Y1097034D01*
X560327Y1094966D01*
X561527Y1092868D01*
X562676Y1090742D01*
X563773Y1088589D01*
X564817Y1086410D01*
X565809Y1084206D01*
X566747Y1081979D01*
X567632Y1079730D01*
X568461Y1077461D01*
X569236Y1075172D01*
X569955Y1072865D01*
X570618Y1070541D01*
X571224Y1068202D01*
X571774Y1065848D01*
X572267Y1063483D01*
X572703Y1061106D01*
X573081Y1058719D01*
X573401Y1056324D01*
X573663Y1053921D01*
X573867Y1051513D01*
X574013Y1049101D01*
X574101Y1046686D01*
X574130Y1044270D01*
X574130Y894270D01*
X574101Y891854D01*
X574013Y889439D01*
X573867Y887027D01*
X573663Y884619D01*
X573401Y882216D01*
X573081Y879821D01*
X572703Y877434D01*
X572267Y875057D01*
X571774Y872692D01*
X571224Y870338D01*
X570618Y867999D01*
X569955Y865675D01*
X569236Y863368D01*
X568461Y861079D01*
X567632Y858810D01*
X566747Y856561D01*
X565809Y854334D01*
X564817Y852130D01*
X563773Y849951D01*
X562676Y847798D01*
X561527Y845672D01*
X560327Y843574D01*
X559077Y841506D01*
X557777Y839469D01*
X556428Y837464D01*
X555032Y835491D01*
X553588Y833554D01*
X552097Y831651D01*
X550562Y829786D01*
X548981Y827958D01*
X547357Y826168D01*
X545690Y824419D01*
X543981Y822710D01*
X542232Y821043D01*
X540442Y819419D01*
X538614Y817838D01*
X536749Y816303D01*
X534846Y814812D01*
X532909Y813368D01*
X530936Y811972D01*
X528931Y810623D01*
X526894Y809323D01*
X524826Y808073D01*
X522728Y806873D01*
X520602Y805724D01*
X518449Y804627D01*
X516270Y803583D01*
X514066Y802591D01*
X511839Y801653D01*
X509590Y800768D01*
X507321Y799939D01*
X505032Y799164D01*
X502725Y798445D01*
X500401Y797782D01*
X498062Y797176D01*
X495708Y796626D01*
X493343Y796133D01*
X490966Y795697D01*
X488579Y795319D01*
X486184Y794999D01*
X483781Y794737D01*
X481373Y794533D01*
X478961Y794387D01*
X476546Y794299D01*
X474130Y794270D01*
D11*
X62748Y1081268D02*
X51562Y1081268D01*
X62748Y1081268D02*
X62748Y1086861D01*
X60883Y1088725D01*
X57155Y1088725D01*
X55291Y1086861D01*
X55291Y1081268D01*
X59019Y1092962D02*
X62748Y1096690D01*
X51562Y1096690D01*
X51562Y1092962D02*
X51562Y1100419D01*
X51562Y827268D02*
X62748Y827268D01*
X62748Y832861D01*
X60883Y834725D01*
X57155Y834725D01*
X55291Y832861D01*
X55291Y827268D01*
X51562Y838962D02*
X51562Y846419D01*
X51562Y838962D02*
X59019Y846419D01*
X60883Y846419D01*
X62748Y844555D01*
X62748Y840826D01*
X60883Y838962D01*
D12*
X371375Y883158D02*
X371375Y894852D01*
X365528Y894852D01*
X363579Y892903D01*
X363579Y889005D01*
X365528Y887056D01*
X371375Y887056D01*
X357732Y883158D02*
X353834Y883158D01*
X351885Y885107D01*
X351885Y889005D01*
X353834Y890954D01*
X357732Y890954D01*
X359681Y889005D01*
X359681Y885107D01*
X357732Y883158D01*
X346038Y890954D02*
X340191Y890954D01*
X346038Y890954D02*
X347987Y889005D01*
X347987Y885107D01*
X346038Y883158D01*
X340191Y883158D01*
X334344Y883158D02*
X330446Y883158D01*
X334344Y883158D02*
X336293Y885107D01*
X336293Y889005D01*
X334344Y890954D01*
X330446Y890954D01*
X328497Y889005D01*
X328497Y887056D01*
X336293Y887056D01*
X324599Y883158D02*
X324599Y894852D01*
X324599Y887056D02*
X318752Y883158D01*
X324599Y887056D02*
X318752Y890954D01*
X312905Y892903D02*
X312905Y885107D01*
X310956Y883158D01*
X310956Y890954D02*
X314854Y890954D01*
X307058Y894852D02*
X307058Y883158D01*
X307058Y894852D02*
X301211Y894852D01*
X299262Y892903D01*
X299262Y890954D01*
X301211Y889005D01*
X299262Y887056D01*
X299262Y885107D01*
X301211Y883158D01*
X307058Y883158D01*
X307058Y889005D02*
X301211Y889005D01*
X293415Y883158D02*
X289517Y883158D01*
X293415Y883158D02*
X295364Y885107D01*
X295364Y889005D01*
X293415Y890954D01*
X289517Y890954D01*
X287568Y889005D01*
X287568Y887056D01*
X295364Y887056D01*
X281721Y890954D02*
X277823Y890954D01*
X275874Y889005D01*
X275874Y883158D01*
X281721Y883158D01*
X283670Y885107D01*
X281721Y887056D01*
X275874Y887056D01*
X268078Y879260D02*
X266129Y879260D01*
X264180Y881209D01*
X264180Y890954D01*
X270027Y890954D01*
X271976Y889005D01*
X271976Y885107D01*
X270027Y883158D01*
X264180Y883158D01*
X260282Y894852D02*
X258333Y894852D01*
X258333Y883158D01*
X260282Y883158D02*
X256384Y883158D01*
X250537Y883158D02*
X246639Y883158D01*
X250537Y883158D02*
X252486Y885107D01*
X252486Y889005D01*
X250537Y890954D01*
X246639Y890954D01*
X244690Y889005D01*
X244690Y887056D01*
X252486Y887056D01*
M02*
