M48
;GenerationSoftware,Autodesk,EAGLE,9.5.1*%
;CreationDate,2019-12-18T20:51:15Z*%
FMAT,2
ICI,OFF
METRIC,TZ,000.000
T7C0.305
T6C0.500
T5C0.800
T4C0.889
T3C1.400
T2C1.500
T1C3.175
%
G90
M71
T1
X198120Y121920
X198120Y5080
X5080Y121920
X5080Y5080
T2
X76200Y29775
X114175Y41345
X127000Y29775
X126875Y21025
X139700Y50095
X139575Y41345
X152400Y29775
X152275Y21025
X165100Y50095
X37975Y41345
X164975Y41345
X177800Y29775
X25400Y29775
X25275Y21025
X38100Y50095
X177675Y21025
X50800Y29775
X50675Y21025
X63500Y50095
X63375Y41345
X76075Y21025
X101600Y29775
X101475Y21025
X114300Y50095
T3
X44550Y27900
X44550Y22900
X57050Y22900
X57050Y27900
X31850Y48220
X31850Y43220
X44350Y43220
X44350Y48220
X19150Y22900
X31650Y22900
X19150Y27900
X31650Y27900
X184050Y22900
X69750Y48220
X69750Y43220
X57250Y43220
X57250Y48220
X82450Y27900
X82450Y22900
X69950Y22900
X69950Y27900
X107850Y27900
X107850Y22900
X95350Y22900
X95350Y27900
X120550Y48220
X120550Y43220
X108050Y43220
X108050Y48220
X133250Y27900
X133250Y22900
X120750Y22900
X120750Y27900
X145950Y48220
X145950Y43220
X133450Y43220
X133450Y48220
X158650Y27900
X158650Y22900
X146150Y22900
X146150Y27900
X171350Y48220
X171350Y43220
X158850Y43220
X158850Y48220
X184050Y27900
X171550Y22900
X171550Y27900
T4
X8450Y82830
X10990Y85370
X10990Y82830
X13530Y85370
X13530Y82830
X16070Y85370
X16070Y82830
X18610Y85370
X18610Y82830
X21150Y85370
X21150Y82830
X23690Y85370
X23690Y82830
X26230Y85370
X26230Y82830
X28770Y85370
X16070Y108230
X31310Y85370
X31310Y82830
X33850Y85370
X33850Y82830
X36390Y85370
X36390Y82830
X38930Y85370
X38930Y82830
X41470Y85370
X41470Y82830
X44010Y85370
X44010Y82830
X46550Y85370
X46550Y82830
X49090Y85370
X49090Y82830
X51630Y85370
X51630Y82830
X28770Y82830
X8450Y110770
X8450Y108230
X10990Y110770
X10990Y108230
X13530Y110770
X13530Y108230
X16070Y110770
X18610Y110770
X18610Y108230
X21150Y110770
X21150Y108230
X23690Y110770
X23690Y108230
X26230Y110770
X26230Y108230
X28770Y110770
X28770Y108230
X31310Y110770
X31310Y108230
X33850Y110770
X33850Y108230
X36390Y110770
X36390Y108230
X38930Y110770
X38930Y108230
X41470Y110770
X41470Y108230
X44010Y110770
X44010Y108230
X46550Y108230
X49090Y110770
X49090Y108230
X51630Y110770
X46550Y110770
X51630Y108230
X8450Y85370
T5
X101600Y96890
X165100Y96890
X165100Y111720
X30850Y104140
X45680Y104140
X101600Y111720
T6
X10200Y58420
X15200Y58420
X12700Y55920
X63540Y91440
X68540Y91440
X66040Y88940
X35600Y78740
X40600Y78740
X38100Y76240
X99100Y81280
X104100Y81280
X101600Y78780
X162600Y81280
X167600Y81280
X165100Y78780
T7
X185420Y5080
X160020Y5080
X134620Y5080
X109220Y5080
X83820Y5080
X58420Y5080
X33020Y5080
X76200Y66040
X180340Y66040
X139700Y60960
X114300Y60960
X195580Y66040
X63500Y58420
X38100Y58420
X165100Y60960
M30